<svg width="2369" height="895" viewBox="0 0 2369 895" fill="none" xmlns="http://www.w3.org/2000/svg">
<path d="M461.894 706.147C604.748 706.147 720.554 590.347 720.554 447.5C720.554 304.653 604.748 188.853 461.894 188.853C319.04 188.853 203.233 304.653 203.233 447.5C203.233 590.347 319.04 706.147 461.894 706.147Z" fill="#FFD800"/>
<path d="M975.108 369.495H929.945C927.892 369.495 927.892 371.548 927.892 371.548V379.759C927.892 381.812 925.84 383.864 923.787 381.812C917.628 373.601 903.258 367.442 880.677 367.442C835.514 367.442 802.668 406.445 802.668 449.552C802.668 494.713 835.514 531.663 880.677 531.663C901.205 531.663 913.522 525.504 921.734 517.293C923.787 515.241 925.84 517.293 925.84 519.346V521.399C925.84 552.19 911.47 564.507 884.782 564.507C866.307 564.507 853.99 554.243 849.884 537.821C849.884 535.768 847.831 535.768 847.831 535.768L806.774 548.085C804.721 548.085 804.721 550.137 804.721 550.137C810.879 578.876 839.619 607.614 886.835 607.614C948.421 607.614 975.108 566.559 975.108 519.346V375.653C977.161 369.495 975.108 369.495 975.108 369.495ZM890.941 484.449C870.412 484.449 856.042 470.08 856.042 447.5C856.042 424.919 872.465 410.55 890.941 410.55C909.417 410.55 925.84 424.919 925.84 447.5C925.84 470.08 911.47 484.449 890.941 484.449Z" fill="black"/>
<path d="M1151.65 509.082V426.972C1151.65 394.128 1131.13 363.337 1077.75 363.337C1030.54 363.337 1007.95 392.075 1005.9 416.708C1005.9 418.761 1007.95 418.761 1007.95 418.761L1049.01 426.972C1051.06 426.972 1051.06 426.972 1051.06 424.919C1053.12 412.603 1063.38 402.339 1079.8 402.339C1096.23 402.339 1104.44 410.55 1104.44 420.814C1104.44 426.972 1100.33 431.078 1092.12 431.078L1053.12 437.236C1026.43 441.341 1003.85 457.764 1003.85 486.502C1003.85 513.188 1024.38 535.768 1061.33 535.768C1081.86 535.768 1094.17 527.557 1104.44 517.293C1106.49 515.241 1108.54 515.241 1108.54 519.346C1108.54 525.504 1110.6 527.557 1110.6 529.61C1106.49 533.715 1108.54 533.715 1108.54 533.715H1149.6C1151.65 533.715 1151.65 531.663 1151.65 531.663C1151.65 527.557 1151.65 519.346 1151.65 509.082ZM1102.39 470.08C1102.39 496.766 1088.02 502.924 1071.59 502.924C1057.22 502.924 1051.06 494.713 1051.06 486.502C1051.06 474.186 1059.28 470.08 1069.54 468.027L1098.28 463.922C1100.33 463.922 1100.33 465.975 1100.33 465.975L1102.39 470.08Z" fill="black"/>
<path d="M1381.57 363.337C1358.99 363.337 1344.62 369.495 1332.31 387.97C1330.25 390.023 1328.2 390.023 1328.2 387.97C1319.99 373.601 1303.57 365.39 1280.98 365.39C1264.56 365.39 1248.14 373.601 1235.82 383.864C1233.77 385.917 1231.72 383.864 1231.72 381.812V371.548C1231.72 369.495 1229.66 369.495 1229.66 369.495H1184.5C1182.45 369.495 1182.45 371.548 1182.45 371.548V533.715C1182.45 535.768 1184.5 535.768 1184.5 535.768H1231.72C1233.77 535.768 1233.77 533.715 1233.77 533.715V439.289C1233.77 424.919 1244.03 410.55 1260.46 410.55C1278.93 410.55 1287.14 422.867 1287.14 439.289V533.715C1287.14 535.768 1289.2 535.768 1289.2 535.768H1334.36C1336.41 535.768 1336.41 533.715 1336.41 533.715V439.289C1336.41 424.919 1346.68 410.55 1365.15 410.55C1383.63 410.55 1391.84 422.867 1391.84 439.289V533.715C1391.84 535.768 1393.89 535.768 1393.89 535.768H1439.05C1441.11 535.768 1441.11 533.715 1441.11 533.715V429.025C1441.11 381.812 1412.37 363.337 1381.57 363.337Z" fill="black"/>
<path d="M1549.91 363.337C1506.8 363.337 1467.79 396.181 1467.79 451.605C1467.79 507.03 1508.85 539.874 1554.01 539.874C1595.07 539.874 1621.76 517.293 1629.97 488.555C1629.97 486.502 1629.97 486.502 1627.92 486.502L1588.91 476.238C1586.86 476.238 1586.86 476.238 1586.86 478.291C1580.7 490.608 1572.49 498.819 1554.01 498.819C1535.54 498.819 1519.12 486.502 1515.01 470.08C1515.01 468.027 1517.06 468.027 1517.06 468.027H1629.97C1632.02 468.027 1632.02 465.975 1632.02 465.975C1632.02 461.869 1634.08 457.764 1634.08 451.605C1632.02 394.128 1601.23 363.337 1549.91 363.337ZM1580.7 431.078H1519.12C1517.06 431.078 1517.06 429.025 1517.06 429.025C1519.12 416.708 1529.38 402.339 1549.91 402.339C1572.49 402.339 1580.7 414.656 1582.75 429.025C1582.75 431.078 1582.75 431.078 1580.7 431.078Z" fill="black"/>
<path d="M1757.25 363.337C1736.72 363.337 1722.35 369.495 1712.08 377.706C1710.03 379.759 1707.98 377.706 1707.98 375.654V291.491C1707.98 289.438 1705.93 289.438 1705.93 289.438H1660.76C1658.71 289.438 1658.71 291.491 1658.71 291.491V533.715C1658.71 535.768 1660.76 535.768 1660.76 535.768H1705.93C1707.98 535.768 1707.98 533.715 1707.98 533.715V523.452C1707.98 521.399 1710.03 519.346 1712.08 521.399C1720.3 531.663 1736.72 537.821 1755.19 537.821C1802.41 537.821 1835.26 500.871 1835.26 451.605C1833.2 400.287 1806.52 363.337 1757.25 363.337ZM1744.93 492.66C1724.4 492.66 1705.93 478.291 1705.93 451.605C1705.93 422.867 1724.4 410.55 1744.93 410.55C1765.46 410.55 1781.88 422.867 1781.88 451.605C1783.93 480.344 1765.46 492.66 1744.93 492.66Z" fill="black"/>
<path d="M2001.54 509.082V426.972C2001.54 394.128 1981.01 363.337 1927.64 363.337C1880.42 363.337 1857.84 392.075 1855.79 416.708C1855.79 418.761 1857.84 418.761 1857.84 418.761L1898.9 426.972C1900.95 426.972 1900.95 426.972 1900.95 424.919C1903 412.603 1913.27 402.339 1929.69 402.339C1946.11 402.339 1954.32 410.55 1954.32 420.814C1954.32 426.972 1950.22 431.078 1942.01 431.078L1903 437.236C1876.31 441.341 1853.73 457.764 1853.73 486.502C1853.73 513.188 1874.26 535.768 1911.21 535.768C1931.74 535.768 1944.06 527.557 1954.32 517.293C1956.38 515.241 1958.43 515.241 1958.43 519.346C1958.43 525.504 1960.48 527.557 1960.48 529.61C1960.48 531.663 1962.53 531.663 1962.53 531.663H2003.59C2005.64 531.663 2005.64 529.61 2005.64 529.61C2001.54 527.557 2001.54 519.346 2001.54 509.082ZM1950.22 470.08C1950.22 496.766 1935.85 502.924 1919.42 502.924C1905.05 502.924 1898.9 494.713 1898.9 486.502C1898.9 474.186 1907.11 470.08 1917.37 468.027L1946.11 463.922C1948.16 463.922 1948.16 465.975 1948.16 465.975L1950.22 470.08Z" fill="black"/>
<path d="M2081.6 293.543H2034.38C2032.33 293.543 2032.33 295.596 2032.33 295.596V533.715C2032.33 535.768 2034.38 535.768 2034.38 535.768H2081.6C2083.65 535.768 2083.65 533.715 2083.65 533.715V295.596C2083.65 293.543 2081.6 293.543 2081.6 293.543Z" fill="black"/>
<path d="M2165.77 293.543H2118.55C2116.5 293.543 2116.5 295.596 2116.5 295.596V533.715C2116.5 535.768 2118.55 535.768 2118.55 535.768H2165.77C2167.82 535.768 2167.82 533.715 2167.82 533.715V295.596C2167.82 293.543 2167.82 293.543 2165.77 293.543Z" fill="black"/>
<path d="M580.959 351.021L457.788 369.495V363.337C457.788 355.126 449.576 348.968 441.365 348.968L336.669 365.39C328.457 367.443 322.299 375.654 326.405 383.865L355.145 447.5C357.197 451.605 357.197 455.711 355.145 457.764L328.457 519.346C324.352 529.61 332.563 539.874 342.827 537.821L457.788 519.346V525.505C457.788 533.715 465.999 539.874 474.21 539.874L585.065 521.399C591.223 519.346 597.382 515.241 597.382 507.03V359.232C597.382 357.179 589.171 351.021 580.959 351.021Z" fill="#FB5819"/>
</svg>
